<svg width="30" height="30" viewBox="0 0 30 30" fill="none" xmlns="http://www.w3.org/2000/svg">
<rect width="30" height="30" rx="15" fill="#724BE0"/>
<path d="M20.625 10.9119H20.475V11.0619V13.8745C20.475 14.414 20.0394 14.8496 19.5 14.8496H19.3277H19.1507L19.1798 15.0242L20.3048 21.7745L20.3257 21.8999H20.4527H22.875C23.4144 21.8999 23.85 22.3355 23.85 22.8749C23.85 23.4144 23.4144 23.85 22.875 23.85H7.125C6.58558 23.85 6.15 23.4144 6.15 22.8749C6.15 22.3355 6.58558 21.8999 7.125 21.8999H9.54727H9.67434L9.69523 21.7745L10.8202 15.0242L10.8493 14.8496H10.6723H10.5C9.96058 14.8496 9.525 14.414 9.525 13.8745V11.0619V10.9119H9.375C9.01851 10.9119 8.67429 10.7137 8.5037 10.3725C8.26301 9.89109 8.45798 9.30616 8.93935 9.06546L14.5644 6.25282C14.8385 6.11573 15.1615 6.11573 15.4356 6.25282L21.0606 9.06546C21.542 9.30616 21.737 9.89109 21.4963 10.3725C21.3257 10.7137 20.9815 10.9119 20.625 10.9119ZM17.0566 21.8999H17.4706L17.1527 21.6347L15.0961 19.919L15 19.8388L14.9039 19.919L12.8473 21.6347L12.5294 21.8999H12.9434H17.0566ZM12.9539 14.8496H12.8268L12.8059 14.975L12.6407 15.97L12.6266 16.0547L12.6926 16.1097L14.9039 17.9555L15 18.0357L15.0961 17.9555L17.3074 16.1097L17.3734 16.0547L17.3593 15.97L17.1941 14.975L17.1732 14.8496H17.0461H12.9539ZM12.5612 17.8094L12.3604 17.6422L12.3173 17.9L11.9235 20.2556L11.8568 20.6547L12.1676 20.3955L13.7777 19.0524L13.916 18.9371L13.7776 18.822L12.5612 17.8094ZM16.2222 18.8221L16.0841 18.9375L16.2224 19.0526L17.8326 20.3921L18.143 20.6504L18.0765 20.252L17.6827 17.8965L17.6395 17.6382L17.4386 17.8061L16.2222 18.8221ZM12.1875 10.3493C11.7953 10.3493 11.475 10.6696 11.475 11.0619C11.475 11.4541 11.7953 11.7744 12.1875 11.7744H17.8125C18.2047 11.7744 18.525 11.4541 18.525 11.0619C18.525 10.6696 18.2047 10.3493 17.8125 10.3493H12.1875Z" fill="white" stroke="#724BE0" stroke-width="0.3"/>
</svg>
