<svg width="36" height="49" viewBox="0 0 36 49" fill="none" xmlns="http://www.w3.org/2000/svg">
<ellipse cx="18" cy="43" rx="10" ry="6" fill="#A07EFF" fill-opacity="0.7"/>
<path d="M30.7273 5.27595C34.0319 8.58263 35.9219 13.0459 35.9976 17.7219C36.0734 22.3979 34.329 26.9201 31.1333 30.3322L30.7273 30.7525L22.2415 39.2427C21.1648 40.3196 19.7193 40.9466 18.1979 40.9967C16.6765 41.0469 15.193 40.5165 14.0477 39.5129L13.7598 39.2427L5.27197 30.7505C1.89639 27.3724 0 22.7906 0 18.0132C0 13.2358 1.89639 8.65409 5.27197 5.27595C8.64756 1.89782 13.2258 0 17.9996 0C22.7734 0 27.3517 1.89782 30.7273 5.27595Z" fill="#724BE0"/>
<path d="M24.25 12.4743H24.1V12.6243V15.7495C24.1 16.3581 23.6086 16.8495 23 16.8495H22.8086H22.6315L22.6606 17.0242L23.9106 24.5245L23.9315 24.6499H24.0586H26.75C27.3586 24.6499 27.85 25.1413 27.85 25.7499C27.85 26.3585 27.3586 26.85 26.75 26.85H9.25C8.64144 26.85 8.15 26.3585 8.15 25.7499C8.15 25.1413 8.64144 24.6499 9.25 24.6499H11.9414H12.0685L12.0894 24.5245L13.3394 17.0242L13.3685 16.8495H13.1914H13C12.3914 16.8495 11.9 16.3581 11.9 15.7495V12.6243V12.4743H11.75C11.3478 12.4743 10.9594 12.2507 10.767 11.8658C10.4954 11.3227 10.7154 10.6627 11.2585 10.3912L17.5085 7.26601C17.8178 7.11133 18.1822 7.11133 18.4915 7.26601L24.7415 10.3912C25.2846 10.6627 25.5046 11.3227 25.233 11.8658C25.0406 12.2507 24.6522 12.4743 24.25 12.4743ZM20.2852 24.6499H20.6991L20.3812 24.3847L18.0961 22.4784L18 22.3982L17.9039 22.4784L15.6188 24.3847L15.3009 24.6499H15.7148H20.2852ZM15.7266 16.8495H15.5994L15.5786 16.9749L15.395 18.0805L15.3809 18.1652L15.4468 18.2202L17.9039 20.2711L18 20.3513L18.0961 20.2711L20.5532 18.2202L20.6191 18.1652L20.605 18.0805L20.4214 16.9749L20.4006 16.8495H20.2734H15.7266ZM15.2796 20.1344L15.0787 19.9672L15.0356 20.2249L14.5981 22.8423L14.5314 23.2414L14.8422 22.9822L16.6312 21.4899L16.7695 21.3746L16.6311 21.2594L15.2796 20.1344ZM19.3687 21.2596L19.2306 21.375L19.3689 21.49L21.158 22.9784L21.4684 23.2367L21.4019 22.8383L20.9644 20.221L20.9212 19.9628L20.7202 20.1306L19.3687 21.2596ZM14.875 11.8493C14.4484 11.8493 14.1 12.1977 14.1 12.6243C14.1 13.0509 14.4484 13.3993 14.875 13.3993H21.125C21.5516 13.3993 21.9 13.0509 21.9 12.6243C21.9 12.1977 21.5516 11.8493 21.125 11.8493H14.875Z" fill="white" stroke="#724BE0" stroke-width="0.3"/>
</svg>
