<svg width="32" height="32" viewBox="0 0 32 32" fill="none" xmlns="http://www.w3.org/2000/svg">
<rect width="32" height="32" rx="16" fill="#7342FF"/>
<path d="M23.8453 18.8268C23.6864 20.1046 23.1057 21.293 22.1952 22.2035C21.2847 23.114 20.0964 23.6947 18.8185 23.8536C18.7107 23.8664 18.6066 23.9004 18.512 23.9535C18.4174 24.0067 18.3342 24.0781 18.2673 24.1635C18.2003 24.2489 18.1509 24.3467 18.1219 24.4513C18.0928 24.5558 18.0847 24.6651 18.098 24.7728C18.156 25.2283 18.5701 25.5512 19.0255 25.4933C22.4126 25.0709 25.0709 22.4126 25.4933 19.0255C25.543 18.5701 25.22 18.156 24.7645 18.1063C24.6567 18.0921 24.5471 18.0995 24.4422 18.1282C24.3372 18.1569 24.2391 18.2063 24.1535 18.2734C24.0679 18.3405 23.9965 18.424 23.9436 18.519C23.8907 18.614 23.8572 18.7187 23.8453 18.8268ZM22.0979 19.1415C22.1253 19.036 22.1316 18.9261 22.1164 18.8182C22.1013 18.7103 22.0649 18.6064 22.0095 18.5125C21.9541 18.4187 21.8808 18.3367 21.7936 18.2712C21.7065 18.2058 21.6072 18.1582 21.5017 18.1312C21.3962 18.1033 21.2862 18.0967 21.1781 18.1117C21.07 18.1266 20.966 18.1629 20.872 18.2183C20.778 18.2738 20.696 18.3473 20.6307 18.4347C20.5653 18.5221 20.518 18.6216 20.4913 18.7274C20.3801 19.1559 20.1564 19.5469 19.8434 19.8599C19.5303 20.173 19.1393 20.3967 18.7108 20.5079C18.498 20.5631 18.3156 20.7004 18.2039 20.8898C18.0921 21.0792 18.06 21.3052 18.1146 21.5182C18.2305 21.9571 18.686 22.2221 19.1249 22.1145C19.8401 21.9281 20.4926 21.5543 21.0151 21.0317C21.5377 20.5091 21.9115 19.8566 22.0979 19.1415ZM24.5492 9.91606L21.6176 6.98446C20.9717 6.33851 19.9199 6.33851 19.274 6.98446L16.6405 9.61793C15.9946 10.2639 15.9946 11.3156 16.6405 11.9615L17.6674 12.9884L17.0794 13.5764L16.0608 12.5495C15.4149 11.9036 14.3631 11.9036 13.7172 12.5495L12.5412 13.7255C11.8953 14.3714 11.8953 15.4232 12.5412 16.0691L13.5681 17.096L12.9802 17.684L11.9615 16.6488C11.3156 16.0028 10.2639 16.0028 9.61793 16.6488L6.98446 19.2823C6.33851 19.9282 6.33851 20.9799 6.98446 21.6259L9.91606 24.5575C10.562 25.2034 11.6137 25.2034 12.2597 24.5575L14.8931 21.924C15.5391 21.2781 15.5391 20.2263 14.8931 19.5804L13.8663 18.5535L14.4542 17.9655L15.4811 18.9924C16.1271 19.6384 17.1788 19.6384 17.8247 18.9924L18.9924 17.8247C19.6384 17.1788 19.6384 16.1271 18.9924 15.4811L17.9572 14.4542L18.5452 13.8663L19.5721 14.8931C20.218 15.5391 21.2698 15.5391 21.9157 14.8931L24.5492 12.2597C25.1951 11.6137 25.1951 10.562 24.5492 9.91606ZM11.0837 23.3815L8.15213 20.4582L9.02995 19.5804L11.9615 22.512L11.0837 23.3815ZM12.8394 21.6259L9.90777 18.6943L10.7856 17.8165L13.7172 20.7481L12.8394 21.6259ZM20.7398 13.7255L17.8082 10.7939L18.686 9.91606L21.6176 12.8477L20.7398 13.7255ZM22.4954 11.9698L19.5638 9.03823L20.4499 8.16041L23.3815 11.092L22.4954 11.9698Z" fill="white"/>
</svg>
