<svg width="36" height="49" viewBox="0 0 36 49" fill="none" xmlns="http://www.w3.org/2000/svg">
<ellipse cx="18" cy="43" rx="10" ry="6" fill="#D02FEB" fill-opacity="0.5"/>
<path d="M30.7273 5.27595C34.0319 8.58263 35.9219 13.0459 35.9976 17.7219C36.0734 22.3979 34.329 26.9201 31.1333 30.3322L30.7273 30.7525L22.2415 39.2427C21.1648 40.3196 19.7193 40.9466 18.1979 40.9967C16.6765 41.0469 15.193 40.5165 14.0477 39.5129L13.7598 39.2427L5.27197 30.7505C1.89639 27.3724 0 22.7906 0 18.0132C0 13.2358 1.89639 8.65409 5.27197 5.27595C8.64756 1.89782 13.2258 0 17.9996 0C22.7734 0 27.3517 1.89782 30.7273 5.27595Z" fill="#D02FEB"/>
<path d="M25.2598 19.9756C25.0926 21.3207 24.4813 22.5715 23.5227 23.53C22.5642 24.4885 21.3132 25.0997 19.968 25.2669C19.8546 25.2804 19.7449 25.3162 19.6453 25.3721C19.5457 25.4281 19.4582 25.5032 19.3877 25.5931C19.3172 25.6831 19.2652 25.786 19.2346 25.8961C19.2041 26.0061 19.1955 26.1211 19.2095 26.2345C19.2706 26.714 19.7065 27.0539 20.1859 26.9929C23.7516 26.5483 26.5501 23.7501 26.9947 20.1848C27.047 19.7053 26.707 19.2695 26.2275 19.2172C26.114 19.2022 25.9986 19.21 25.8882 19.2402C25.7777 19.2704 25.6744 19.3224 25.5843 19.393C25.4941 19.4636 25.419 19.5515 25.3633 19.6516C25.3076 19.7516 25.2724 19.8618 25.2598 19.9756ZM23.4203 20.3068C23.4491 20.1958 23.4558 20.0801 23.4398 19.9665C23.4238 19.8529 23.3856 19.7436 23.3273 19.6448C23.269 19.546 23.1917 19.4596 23.1 19.3908C23.0082 19.3219 22.9038 19.2718 22.7926 19.2433C22.6816 19.214 22.5658 19.207 22.452 19.2228C22.3382 19.2385 22.2287 19.2767 22.1298 19.3351C22.0308 19.3935 21.9445 19.4709 21.8757 19.5629C21.8069 19.6549 21.7571 19.7596 21.729 19.871C21.6119 20.322 21.3764 20.7336 21.0469 21.0631C20.7174 21.3926 20.3058 21.6281 19.8547 21.7452C19.6305 21.8032 19.4386 21.9478 19.3209 22.1472C19.2033 22.3465 19.1695 22.5844 19.227 22.8087C19.349 23.2707 19.8285 23.5496 20.2906 23.4363C21.0434 23.2401 21.7303 22.8466 22.2805 22.2965C22.8306 21.7464 23.2241 21.0596 23.4203 20.3068ZM26.0008 10.5958L22.9147 7.50996C22.2347 6.83001 21.1275 6.83001 20.4475 7.50996L17.6752 10.282C16.9952 10.962 16.9952 12.0691 17.6752 12.749L18.7562 13.8299L18.1372 14.4489L17.0649 13.3679C16.3849 12.688 15.2777 12.688 14.5977 13.3679L13.3598 14.6058C12.6798 15.2857 12.6798 16.3928 13.3598 17.0727L14.4408 18.1537L13.8218 18.7726L12.7495 17.6829C12.0695 17.003 10.9623 17.003 10.2823 17.6829L7.51 20.455C6.83 21.135 6.83 22.242 7.51 22.922L10.5962 26.0079C11.2762 26.6878 12.3834 26.6878 13.0634 26.0079L15.8357 23.2358C16.5157 22.5559 16.5157 21.4488 15.8357 20.7688L14.7546 19.6879L15.3736 19.069L16.4547 20.1499C17.1347 20.8299 18.2418 20.8299 18.9218 20.1499L20.1511 18.9208C20.8311 18.2408 20.8311 17.1338 20.1511 16.4538L19.0613 15.3729L19.6803 14.754L20.7613 15.8349C21.4413 16.5148 22.5485 16.5148 23.2285 15.8349L26.0008 13.0628C26.6808 12.3829 26.6808 11.2758 26.0008 10.5958ZM11.8254 24.77L8.73924 21.6929L9.66334 20.7688L12.7495 23.8547L11.8254 24.77ZM13.6736 22.922L10.5874 19.8361L11.5116 18.9121L14.5977 21.998L13.6736 22.922ZM21.9906 14.6058L18.9044 11.5199L19.8285 10.5958L22.9147 13.6817L21.9906 14.6058ZM23.8388 12.7577L20.7526 9.67182L21.6854 8.7478L24.7716 11.8337L23.8388 12.7577Z" fill="white"/>
</svg>
