<svg width="36" height="40" viewBox="0 0 36 40" fill="none" xmlns="http://www.w3.org/2000/svg">
    <g filter="url(#filter0_d_2955_20768)">
        <path d="M27.899 7.98914C30.4692 10.4893 31.9392 13.8639 31.9982 17.3995C32.0571 20.935 30.7003 24.3542 28.2148 26.9341L27.899 27.2519L21.5 33.6713C20.6626 34.4855 19.183 35.9621 17.9997 36C16.8164 36.0379 15.3907 34.6344 14.5 33.8756L8.10042 27.2504C5.47497 24.6962 4 21.232 4 17.6198C4 14.0076 5.47497 10.5433 8.10042 7.98914C10.7259 5.43494 14.2868 4 17.9997 4C21.7127 4 25.2736 5.43494 27.899 7.98914Z" fill="#D02FEB"/>
        <path d="M24.6079 20.3814C24.4741 21.4576 23.985 22.4583 23.2182 23.2252C22.4514 23.992 21.4506 24.481 20.3744 24.6148C20.2836 24.6256 20.1959 24.6542 20.1162 24.699C20.0366 24.7438 19.9665 24.8039 19.9102 24.8758C19.8538 24.9478 19.8122 25.0301 19.7877 25.1182C19.7632 25.2062 19.7564 25.2983 19.7676 25.389C19.8164 25.7726 20.1652 26.0446 20.5488 25.9957C23.4013 25.6401 25.6401 23.4013 25.9958 20.5488C26.0376 20.1652 25.7656 19.8164 25.382 19.7746C25.2912 19.7626 25.1989 19.7689 25.1105 19.7931C25.0222 19.8172 24.9395 19.8588 24.8674 19.9153C24.7953 19.9718 24.7352 20.0421 24.6906 20.1222C24.6461 20.2022 24.6179 20.2903 24.6079 20.3814ZM23.1363 20.6464C23.1593 20.5576 23.1646 20.465 23.1518 20.3741C23.1391 20.2832 23.1085 20.1958 23.0618 20.1167C23.0152 20.0377 22.9534 19.9686 22.88 19.9135C22.8066 19.8584 22.723 19.8183 22.6341 19.7955C22.5452 19.7721 22.4526 19.7665 22.3616 19.7791C22.2706 19.7917 22.183 19.8222 22.1038 19.8689C22.0247 19.9156 21.9556 19.9776 21.9006 20.0512C21.8455 20.1248 21.8056 20.2086 21.7832 20.2977C21.6895 20.6585 21.5011 20.9878 21.2375 21.2515C20.9739 21.5151 20.6446 21.7035 20.2837 21.7972C20.1044 21.8436 19.9509 21.9593 19.8568 22.1188C19.7626 22.2783 19.7356 22.4686 19.7816 22.648C19.8792 23.0177 20.2628 23.2409 20.6324 23.1502C21.2347 22.9932 21.7843 22.6784 22.2244 22.2383C22.6645 21.7982 22.9793 21.2487 23.1363 20.6464ZM25.2007 12.8769L22.7317 10.408C22.1877 9.864 21.302 9.864 20.758 10.408L18.5401 12.6259C17.9961 13.1699 17.9961 14.0556 18.5401 14.5996L19.405 15.4644L18.9098 15.9596L18.0519 15.0948C17.5079 14.5508 16.6222 14.5508 16.0782 15.0948L15.0878 16.0851C14.5438 16.6292 14.5438 17.5149 15.0878 18.0589L15.9526 18.9237L15.4575 19.4189L14.5996 18.5471C14.0556 18.0031 13.1699 18.0031 12.6259 18.5471L10.408 20.765C9.864 21.309 9.864 22.1947 10.408 22.7387L12.8769 25.2076C13.4209 25.7516 14.3067 25.7516 14.8507 25.2076L17.0685 22.9898C17.6125 22.4458 17.6125 21.56 17.0685 21.016L16.2037 20.1512L16.6989 19.656L17.5637 20.5209C18.1077 21.0649 18.9935 21.0649 19.5375 20.5209L20.5209 19.5375C21.0649 18.9935 21.0649 18.1077 20.5209 17.5637L19.6491 16.6989L20.1442 16.2037L21.0091 17.0685C21.5531 17.6125 22.4388 17.6125 22.9828 17.0685L25.2007 14.8507C25.7447 14.3067 25.7447 13.4209 25.2007 12.8769ZM13.8603 24.2173L11.3914 21.7553L12.1307 21.016L14.5996 23.485L13.8603 24.2173ZM15.3389 22.7387L12.87 20.2698L13.6092 19.5305L16.0782 21.9994L15.3389 22.7387ZM21.9925 16.0851L19.5235 13.6162L20.2628 12.8769L22.7317 15.3459L21.9925 16.0851ZM23.471 14.6066L21.0021 12.1376L21.7484 11.3984L24.2173 13.8673L23.471 14.6066Z" fill="white"/>
    </g>
    <defs>
        <filter id="filter0_d_2955_20768" x="0" y="0" width="36" height="40.0007" filterUnits="userSpaceOnUse" color-interpolation-filters="sRGB">
            <feFlood flood-opacity="0" result="BackgroundImageFix"/>
            <feColorMatrix in="SourceAlpha" type="matrix" values="0 0 0 0 0 0 0 0 0 0 0 0 0 0 0 0 0 0 127 0" result="hardAlpha"/>
            <feOffset/>
            <feGaussianBlur stdDeviation="2"/>
            <feComposite in2="hardAlpha" operator="out"/>
            <feColorMatrix type="matrix" values="0 0 0 0 0 0 0 0 0 0 0 0 0 0 0 0 0 0 0.3 0"/>
            <feBlend mode="normal" in2="BackgroundImageFix" result="effect1_dropShadow_2955_20768"/>
            <feBlend mode="normal" in="SourceGraphic" in2="effect1_dropShadow_2955_20768" result="shape"/>
        </filter>
    </defs>
</svg>
