<svg width="80" height="80" viewBox="0 0 80 80" fill="none" xmlns="http://www.w3.org/2000/svg">
<g filter="url(#filter0_d_1893_2650)">
<rect x="20" y="15" width="40" height="40" rx="20" fill="#724BE0"/>
<path d="M49.4743 38.4133C49.2825 39.9564 48.5813 41.3913 47.4818 42.4908C46.3823 43.5903 44.9473 44.2915 43.4043 44.4833C43.2742 44.4988 43.1484 44.5398 43.0342 44.604C42.9199 44.6683 42.8195 44.7544 42.7387 44.8576C42.6578 44.9607 42.5982 45.0788 42.5631 45.2051C42.528 45.3313 42.5182 45.4633 42.5343 45.5933C42.6043 46.1433 43.1043 46.5333 43.6543 46.4633C47.7443 45.9533 50.9543 42.7433 51.4643 38.6533C51.5243 38.1033 51.1343 37.6033 50.5843 37.5433C50.4541 37.5262 50.3217 37.5352 50.195 37.5698C50.0683 37.6044 49.9498 37.664 49.8464 37.745C49.7431 37.8261 49.6569 37.9269 49.593 38.0417C49.5291 38.1564 49.4887 38.2828 49.4743 38.4133ZM47.3643 38.7933C47.3974 38.6659 47.405 38.5333 47.3866 38.4029C47.3683 38.2726 47.3245 38.1472 47.2576 38.0338C47.1907 37.9205 47.1021 37.8215 46.9968 37.7425C46.8916 37.6634 46.7718 37.606 46.6443 37.5733C46.5169 37.5397 46.3841 37.5317 46.2536 37.5498C46.1231 37.5678 45.9974 37.6116 45.884 37.6786C45.7705 37.7456 45.6714 37.8344 45.5925 37.9399C45.5136 38.0454 45.4564 38.1655 45.4243 38.2933C45.29 38.8107 45.0199 39.2829 44.6419 39.6609C44.2639 40.0389 43.7917 40.309 43.2743 40.4433C43.0172 40.5099 42.7971 40.6758 42.6621 40.9045C42.5271 41.1332 42.4884 41.4061 42.5543 41.6633C42.6943 42.1933 43.2443 42.5133 43.7743 42.3833C44.6379 42.1582 45.4258 41.7069 46.0568 41.0758C46.6879 40.4448 47.1392 39.6569 47.3643 38.7933ZM50.3243 27.6533L46.7843 24.1133C46.0043 23.3333 44.7343 23.3333 43.9543 24.1133L40.7743 27.2933C39.9943 28.0733 39.9943 29.3433 40.7743 30.1233L42.0143 31.3633L41.3043 32.0733L40.0743 30.8333C39.2943 30.0533 38.0243 30.0533 37.2443 30.8333L35.8243 32.2533C35.0443 33.0333 35.0443 34.3033 35.8243 35.0833L37.0643 36.3233L36.3543 37.0333L35.1243 35.7833C34.3443 35.0033 33.0743 35.0033 32.2943 35.7833L29.1143 38.9633C28.3343 39.7433 28.3343 41.0133 29.1143 41.7933L32.6543 45.3333C33.4343 46.1133 34.7043 46.1133 35.4843 45.3333L38.6643 42.1533C39.4443 41.3733 39.4443 40.1033 38.6643 39.3233L37.4243 38.0833L38.1343 37.3733L39.3743 38.6133C40.1543 39.3933 41.4243 39.3933 42.2043 38.6133L43.6143 37.2033C44.3943 36.4233 44.3943 35.1533 43.6143 34.3733L42.3643 33.1333L43.0743 32.4233L44.3143 33.6633C45.0943 34.4433 46.3643 34.4433 47.1443 33.6633L50.3243 30.4833C51.1043 29.7033 51.1043 28.4333 50.3243 27.6533ZM34.0643 43.9133L30.5243 40.3833L31.5843 39.3233L35.1243 42.8633L34.0643 43.9133ZM36.1843 41.7933L32.6443 38.2533L33.7043 37.1933L37.2443 40.7333L36.1843 41.7933ZM45.7243 32.2533L42.1843 28.7133L43.2443 27.6533L46.7843 31.1933L45.7243 32.2533ZM47.8443 30.1333L44.3043 26.5933L45.3743 25.5333L48.9143 29.0733L47.8443 30.1333Z" fill="white"/>
</g>
<defs>
<filter id="filter0_d_1893_2650" x="0" y="0" width="80" height="80" filterUnits="userSpaceOnUse" color-interpolation-filters="sRGB">
<feFlood flood-opacity="0" result="BackgroundImageFix"/>
<feColorMatrix in="SourceAlpha" type="matrix" values="0 0 0 0 0 0 0 0 0 0 0 0 0 0 0 0 0 0 127 0" result="hardAlpha"/>
<feOffset dy="5"/>
<feGaussianBlur stdDeviation="10"/>
<feComposite in2="hardAlpha" operator="out"/>
<feColorMatrix type="matrix" values="0 0 0 0 0 0 0 0 0 0 0 0 0 0 0 0 0 0 0.2 0"/>
<feBlend mode="normal" in2="BackgroundImageFix" result="effect1_dropShadow_1893_2650"/>
<feBlend mode="normal" in="SourceGraphic" in2="effect1_dropShadow_1893_2650" result="shape"/>
</filter>
</defs>
</svg>
