<svg width="36" height="36" viewBox="0 0 36 36" fill="none" xmlns="http://www.w3.org/2000/svg">
<g id="maki:observation-tower">
<rect width="36" height="36" rx="18" fill="#54A6E7"/>
<path id="Vector" d="M24.5455 25.8889H23.8182L21.6364 20.963V18.1481C23.0836 18.1481 23.0836 17.0926 23.0836 17.0926L23.8182 12.5185C23.8182 12.5185 23.8182 11.8148 23.0909 11.8148H21.6364C21.6364 11.8148 21.6364 11.1111 20.9091 11.1111H19.4545V10.4074C19.4545 10.4074 19.4545 9 18 9C16.5455 9 16.5455 10.4074 16.5455 10.4074V11.1111H15.0909C14.3636 11.1111 14.3636 11.8148 14.3636 11.8148H12.9091C12.1818 11.8148 12.1818 12.5185 12.1818 12.5185L12.9164 17.0926C12.9164 17.0926 12.9164 18.1481 14.3636 18.1481V20.963L12.1818 25.8889H11.4545C11.4545 25.8889 10 25.8889 10 26.9444C10 28 11.4545 28 11.4545 28H24.5455C24.5455 28 26 28 26 26.9444C26 25.8889 24.5455 25.8889 24.5455 25.8889ZM22 13.2222L21.6364 15.3333H14.3636L14 13.218L22 13.2222ZM19.4545 18.1481V19.5556H16.5455V18.1481H19.4545ZM16.5455 21.6624H19.4545L20.9091 25.8889H15.0909L16.5455 21.6624Z" fill="white"/>
</g>
</svg>
