<svg width="56" height="69" viewBox="0 0 56 69" fill="none" xmlns="http://www.w3.org/2000/svg">
<g filter="url(#filter0_d_3174_2666)">
<ellipse cx="28" cy="53" rx="10" ry="6" fill="#4DC2DC" fill-opacity="0.5"/>
<path d="M40.7273 15.276C44.0319 18.5826 45.9219 23.0459 45.9976 27.7219C46.0734 32.3979 44.329 36.9201 41.1333 40.3322L40.7273 40.7525L32.2415 49.2427C31.1648 50.3196 29.7193 50.9466 28.1979 50.9967C26.6765 51.0469 25.193 50.5165 24.0477 49.5129L23.7598 49.2427L15.272 40.7505C11.8964 37.3724 10 32.7906 10 28.0132C10 23.2358 11.8964 18.6541 15.272 15.276C18.6476 11.8978 23.2258 10 27.9996 10C32.7734 10 37.3517 11.8978 40.7273 15.276Z" fill="#2BB4D2"/>
<path d="M34.25 22.4743H34.1V22.6243V25.7495C34.1 26.3581 33.6086 26.8495 33 26.8495H32.8086H32.6315L32.6606 27.0242L33.9106 34.5245L33.9315 34.6499H34.0586H36.75C37.3586 34.6499 37.85 35.1413 37.85 35.7499C37.85 36.3585 37.3586 36.85 36.75 36.85H19.25C18.6414 36.85 18.15 36.3585 18.15 35.7499C18.15 35.1413 18.6414 34.6499 19.25 34.6499H21.9414H22.0685L22.0894 34.5245L23.3394 27.0242L23.3685 26.8495H23.1914H23C22.3914 26.8495 21.9 26.3581 21.9 25.7495V22.6243V22.4743H21.75C21.3478 22.4743 20.9594 22.2507 20.767 21.8658C20.4954 21.3227 20.7154 20.6627 21.2585 20.3912L27.5085 17.266C27.8178 17.1113 28.1822 17.1113 28.4915 17.266L34.7415 20.3912C35.2846 20.6627 35.5046 21.3227 35.233 21.8658C35.0406 22.2507 34.6522 22.4743 34.25 22.4743ZM30.2852 34.6499H30.6991L30.3812 34.3847L28.0961 32.4784L28 32.3982L27.9039 32.4784L25.6188 34.3847L25.3009 34.6499H25.7148H30.2852ZM25.7266 26.8495H25.5994L25.5786 26.9749L25.395 28.0805L25.3809 28.1652L25.4468 28.2202L27.9039 30.2711L28 30.3513L28.0961 30.2711L30.5532 28.2202L30.6191 28.1652L30.605 28.0805L30.4214 26.9749L30.4006 26.8495H30.2734H25.7266ZM25.2796 30.1344L25.0787 29.9672L25.0356 30.2249L24.5981 32.8423L24.5314 33.2414L24.8422 32.9822L26.6312 31.4899L26.7695 31.3746L26.6311 31.2594L25.2796 30.1344ZM29.3687 31.2596L29.2306 31.375L29.3689 31.49L31.158 32.9784L31.4684 33.2367L31.4019 32.8383L30.9644 30.221L30.9212 29.9628L30.7202 30.1306L29.3687 31.2596ZM24.875 21.8493C24.4484 21.8493 24.1 22.1977 24.1 22.6243C24.1 23.0509 24.4484 23.3993 24.875 23.3993H31.125C31.5516 23.3993 31.9 23.0509 31.9 22.6243C31.9 22.1977 31.5516 21.8493 31.125 21.8493H24.875Z" fill="white" stroke="#2BB4D2" stroke-width="0.3"/>
</g>
<defs>
<filter id="filter0_d_3174_2666" x="0" y="0" width="56" height="69" filterUnits="userSpaceOnUse" color-interpolation-filters="sRGB">
<feFlood flood-opacity="0" result="BackgroundImageFix"/>
<feColorMatrix in="SourceAlpha" type="matrix" values="0 0 0 0 0 0 0 0 0 0 0 0 0 0 0 0 0 0 127 0" result="hardAlpha"/>
<feOffset/>
<feGaussianBlur stdDeviation="5"/>
<feComposite in2="hardAlpha" operator="out"/>
<feColorMatrix type="matrix" values="0 0 0 0 0 0 0 0 0 0 0 0 0 0 0 0 0 0 0.4 0"/>
<feBlend mode="normal" in2="BackgroundImageFix" result="effect1_dropShadow_3174_2666"/>
<feBlend mode="normal" in="SourceGraphic" in2="effect1_dropShadow_3174_2666" result="shape"/>
</filter>
</defs>
</svg>
