<svg width="30" height="30" viewBox="0 0 30 30" fill="none" xmlns="http://www.w3.org/2000/svg">
<rect width="30" height="30" rx="15" fill="white"/>
<path d="M22.4338 17.6781C22.2833 18.8888 21.7332 20.0146 20.8705 20.8773C20.0078 21.74 18.8819 22.2902 17.6712 22.4407C17.5691 22.4528 17.4704 22.485 17.3808 22.5354C17.2912 22.5858 17.2124 22.6534 17.1489 22.7343C17.0855 22.8153 17.0387 22.9079 17.0112 23.007C16.9837 23.106 16.976 23.2096 16.9886 23.3116C17.0435 23.7432 17.4358 24.0492 17.8674 23.9942C21.0764 23.5941 23.5951 21.0755 23.9952 17.8664C24.0423 17.4348 23.7363 17.0425 23.3048 16.9954C23.2026 16.982 23.0987 16.989 22.9993 17.0162C22.8999 17.0434 22.8069 17.0901 22.7258 17.1537C22.6447 17.2173 22.5771 17.2964 22.527 17.3865C22.4768 17.4765 22.4452 17.5756 22.4338 17.6781ZM20.7783 17.9762C20.8042 17.8763 20.8102 17.7722 20.7958 17.6699C20.7814 17.5677 20.747 17.4692 20.6946 17.3803C20.6421 17.2914 20.5725 17.2137 20.49 17.1517C20.4074 17.0897 20.3134 17.0446 20.2134 17.019C20.1134 16.9926 20.0092 16.9863 19.9068 17.0005C19.8044 17.0147 19.7058 17.049 19.6168 17.1016C19.5278 17.1541 19.45 17.2238 19.3881 17.3066C19.3262 17.3894 19.2814 17.4837 19.2561 17.5839C19.1507 17.9899 18.9388 18.3603 18.6422 18.6569C18.3456 18.9535 17.9752 19.1655 17.5692 19.2708C17.3675 19.3231 17.1948 19.4532 17.0888 19.6327C16.9829 19.8121 16.9525 20.0262 17.0043 20.2281C17.1141 20.6439 17.5457 20.895 17.9615 20.793C18.6391 20.6164 19.2573 20.2622 19.7524 19.7671C20.2475 19.272 20.6017 18.6538 20.7783 17.9762ZM23.1008 9.23557L20.3232 6.45802C19.7112 5.84602 18.7147 5.84602 18.1027 6.45802L15.6077 8.95311C14.9956 9.56511 14.9956 10.5616 15.6077 11.1736L16.5806 12.1465L16.0235 12.7036L15.0584 11.7307C14.4464 11.1187 13.45 11.1187 12.8379 11.7307L11.7238 12.8448C11.1118 13.4568 11.1118 14.4533 11.7238 15.0653L12.6967 16.0382L12.1396 16.5953L11.1746 15.6145C10.5626 15.0025 9.56609 15.0025 8.95409 15.6145L6.459 18.1096C5.847 18.7216 5.847 19.7181 6.459 20.3301L9.23655 23.1076C9.84855 23.7196 10.845 23.7196 11.457 23.1076L13.9521 20.6125C14.5641 20.0005 14.5641 19.0041 13.9521 18.3921L12.9792 17.4191L13.5363 16.8621L14.5092 17.835C15.1212 18.447 16.1177 18.447 16.7297 17.835L17.836 16.7287C18.448 16.1167 18.448 15.1202 17.836 14.5082L16.8552 13.5353L17.4123 12.9782L18.3852 13.9511C18.9972 14.5631 19.9937 14.5631 20.6057 13.9511L23.1008 11.456C23.7128 10.844 23.7128 9.84757 23.1008 9.23557ZM10.3429 21.9935L7.56531 19.2238L8.39701 18.3921L11.1746 21.1696L10.3429 21.9935ZM12.0063 20.3301L9.2287 17.5525L10.0604 16.7208L12.8379 19.4984L12.0063 20.3301ZM19.4915 12.8448L16.714 10.0673L17.5457 9.23557L20.3232 12.0131L19.4915 12.8448ZM21.1549 11.1814L18.3774 8.40388L19.2169 7.57218L21.9944 10.3497L21.1549 11.1814Z" fill="#D02FEB"/>
</svg>
