<svg width="30" height="30" viewBox="0 0 30 30" fill="none" xmlns="http://www.w3.org/2000/svg">
<rect width="30" height="30" rx="15" fill="#724BE0"/>
<path d="M22.4338 17.678C22.2833 18.8886 21.7332 20.0144 20.8705 20.877C20.0078 21.7396 18.8819 22.2897 17.6712 22.4402C17.5691 22.4524 17.4704 22.4845 17.3808 22.5349C17.2912 22.5853 17.2124 22.6529 17.1489 22.7338C17.0855 22.8147 17.0387 22.9074 17.0112 23.0065C16.9837 23.1055 16.976 23.209 16.9886 23.3111C17.0435 23.7426 17.4358 24.0485 17.8674 23.9936C21.0764 23.5935 23.5951 21.0751 23.9952 17.8663C24.0423 17.4348 23.7363 17.0425 23.3048 16.9955C23.2026 16.982 23.0987 16.989 22.9993 17.0162C22.8999 17.0434 22.8069 17.0901 22.7258 17.1537C22.6447 17.2173 22.5771 17.2964 22.527 17.3864C22.4768 17.4765 22.4452 17.5756 22.4338 17.678ZM20.7783 17.9761C20.8042 17.8762 20.8102 17.7721 20.7958 17.6699C20.7814 17.5676 20.747 17.4692 20.6946 17.3803C20.6421 17.2914 20.5725 17.2137 20.49 17.1517C20.4074 17.0897 20.3134 17.0446 20.2134 17.019C20.1134 16.9926 20.0092 16.9863 19.9068 17.0005C19.8044 17.0147 19.7058 17.049 19.6168 17.1016C19.5278 17.1541 19.45 17.2238 19.3881 17.3066C19.3262 17.3894 19.2814 17.4836 19.2561 17.5839C19.1507 17.9898 18.9388 18.3602 18.6422 18.6568C18.3456 18.9533 17.9752 19.1653 17.5692 19.2706C17.3675 19.3229 17.1948 19.453 17.0888 19.6324C16.9829 19.8119 16.9525 20.026 17.0043 20.2278C17.1141 20.6436 17.5457 20.8947 17.9615 20.7927C18.6391 20.6161 19.2573 20.262 19.7524 19.7669C20.2475 19.2718 20.6017 18.6536 20.7783 17.9761ZM23.1008 9.23626L20.3232 6.45896C19.7112 5.84701 18.7147 5.84701 18.1027 6.45896L15.6077 8.95383C14.9956 9.56577 14.9956 10.5622 15.6077 11.1741L16.5806 12.1469L16.0235 12.704L15.0584 11.7311C14.4464 11.1192 13.45 11.1192 12.8379 11.7311L11.7238 12.8452C11.1118 13.4571 11.1118 14.4535 11.7238 15.0655L12.6967 16.0383L12.1396 16.5953L11.1746 15.6146C10.5626 15.0027 9.56609 15.0027 8.95409 15.6146L6.459 18.1095C5.847 18.7215 5.847 19.7178 6.459 20.3298L9.23655 23.1071C9.84855 23.719 10.845 23.719 11.457 23.1071L13.9521 20.6122C14.5641 20.0003 14.5641 19.0039 13.9521 18.3919L12.9792 17.4191L13.5363 16.8621L14.5092 17.8349C15.1212 18.4469 16.1177 18.4469 16.7297 17.8349L17.836 16.7287C18.448 16.1168 18.448 15.1204 17.836 14.5084L16.8552 13.5356L17.4123 12.9786L18.3852 13.9514C18.9972 14.5633 19.9937 14.5633 20.6057 13.9514L23.1008 11.4565C23.7128 10.8446 23.7128 9.84821 23.1008 9.23626ZM10.3429 21.993L7.56531 19.2236L8.39701 18.3919L11.1746 21.1692L10.3429 21.993ZM12.0063 20.3298L9.2287 17.5525L10.0604 16.7209L12.8379 19.4982L12.0063 20.3298ZM19.4915 12.8452L16.714 10.0679L17.5457 9.23626L20.3232 12.0136L19.4915 12.8452ZM21.1549 11.1819L18.3774 8.40464L19.2169 7.57302L21.9944 10.3503L21.1549 11.1819Z" fill="white"/>
</svg>
