<svg width="36" height="39" viewBox="0 0 36 39" fill="none" xmlns="http://www.w3.org/2000/svg">
    <g filter="url(#filter0_d_2955_20769)">
        <path d="M27.899 7.98914C30.4692 10.4893 31.9392 13.8639 31.9982 17.3994C32.0571 20.935 30.7003 24.3542 28.2148 26.9341L27.899 27.2519L21.299 33.6713C20.4615 34.4855 19.3373 34.9596 18.154 34.9975C16.9706 35.0355 15.8167 34.6344 14.926 33.8756L14.702 33.6713L8.10042 27.2504C5.47497 24.6962 4 21.232 4 17.6198C4 14.0076 5.47497 10.5433 8.10042 7.98914C10.7259 5.43494 14.2868 4 17.9997 4C21.7127 4 25.2736 5.43494 27.899 7.98914Z" fill="#724BE0"/>
        <path d="M23 13.3494H22.85V13.4994V15.9996C22.85 16.4699 22.4703 16.8496 22 16.8496H21.8469H21.6698L21.6989 17.0243L22.6989 23.0246L22.7198 23.1499H22.8469H25C25.4703 23.1499 25.85 23.5296 25.85 24C25.85 24.4703 25.4703 24.85 25 24.85H11C10.5297 24.85 10.15 24.4703 10.15 24C10.15 23.5296 10.5297 23.1499 11 23.1499H13.1531H13.2802L13.3011 23.0246L14.3011 17.0243L14.3302 16.8496H14.1531H14C13.5297 16.8496 13.15 16.4699 13.15 15.9996V13.4994V13.3494H13C12.6892 13.3494 12.3891 13.1767 12.2404 12.8792C12.0306 12.4595 12.2006 11.9496 12.6202 11.7398L17.6202 9.23964C17.8592 9.12012 18.1408 9.12012 18.3798 9.23964L23.3798 11.7398C23.7994 11.9496 23.9694 12.4595 23.7596 12.8792C23.6109 13.1767 23.3108 13.3494 23 13.3494ZM19.8281 23.1499H20.2421L19.9242 22.8847L18.0961 21.3596L18 21.2795L17.9039 21.3596L16.0758 22.8847L15.7579 23.1499H16.1719H19.8281ZM16.1813 16.8496H16.0541L16.0333 16.975L15.8864 17.8595L15.8723 17.9442L15.9383 17.9992L17.9039 19.6399L18 19.7201L18.0961 19.6399L20.0617 17.9992L20.1277 17.9442L20.1136 17.8595L19.9667 16.975L19.9459 16.8496H19.8188H16.1813ZM15.8428 19.4845L15.642 19.3173L15.5989 19.575L15.2489 21.6689L15.1822 22.068L15.493 21.8088L16.9242 20.615L17.0624 20.4997L16.9241 20.3845L15.8428 19.4845ZM19.0757 20.3847L18.9376 20.5L19.0759 20.6151L20.5072 21.8058L20.8177 22.0641L20.7511 21.6657L20.4011 19.5719L20.3579 19.3136L20.157 19.4815L19.0757 20.3847ZM15.5 12.8494C15.1422 12.8494 14.85 13.1416 14.85 13.4994C14.85 13.8573 15.1422 14.1495 15.5 14.1495H20.5C20.8579 14.1495 21.15 13.8573 21.15 13.4994C21.15 13.1416 20.8579 12.8494 20.5 12.8494H15.5Z" fill="white" stroke="#724BE0" stroke-width="0.3"/>
    </g>
    <defs>
        <filter id="filter0_d_2955_20769" x="0" y="0" width="36" height="39" filterUnits="userSpaceOnUse" color-interpolation-filters="sRGB">
            <feFlood flood-opacity="0" result="BackgroundImageFix"/>
            <feColorMatrix in="SourceAlpha" type="matrix" values="0 0 0 0 0 0 0 0 0 0 0 0 0 0 0 0 0 0 127 0" result="hardAlpha"/>
            <feOffset/>
            <feGaussianBlur stdDeviation="2"/>
            <feComposite in2="hardAlpha" operator="out"/>
            <feColorMatrix type="matrix" values="0 0 0 0 0 0 0 0 0 0 0 0 0 0 0 0 0 0 0.3 0"/>
            <feBlend mode="normal" in2="BackgroundImageFix" result="effect1_dropShadow_2955_20769"/>
            <feBlend mode="normal" in="SourceGraphic" in2="effect1_dropShadow_2955_20769" result="shape"/>
        </filter>
    </defs>
</svg>
