<svg width="56" height="69" viewBox="0 0 56 69" fill="none" xmlns="http://www.w3.org/2000/svg">
    <g filter="url(#filter0_d_2945_2715)">
        <ellipse cx="28" cy="53" rx="10" ry="6" fill="#D02FEB" fill-opacity="0.5"/>
        <path d="M40.7273 15.276C44.0319 18.5826 45.9219 23.0459 45.9976 27.7219C46.0734 32.3979 44.329 36.9201 41.1333 40.3322L40.7273 40.7525L32.2415 49.2427C31.1648 50.3196 29.7193 50.9466 28.1979 50.9967C26.6765 51.0469 25.193 50.5165 24.0477 49.5129L23.7598 49.2427L15.272 40.7505C11.8964 37.3724 10 32.7906 10 28.0132C10 23.2358 11.8964 18.6541 15.272 15.276C18.6476 11.8978 23.2258 10 27.9996 10C32.7734 10 37.3517 11.8978 40.7273 15.276Z" fill="#D02FEB"/>
        <path d="M35.2598 29.9756C35.0926 31.3207 34.4813 32.5715 33.5227 33.53C32.5642 34.4885 31.3132 35.0997 29.968 35.2669C29.8546 35.2804 29.7449 35.3162 29.6453 35.3721C29.5457 35.4281 29.4582 35.5032 29.3877 35.5931C29.3172 35.6831 29.2652 35.786 29.2346 35.8961C29.2041 36.0061 29.1955 36.1211 29.2095 36.2345C29.2706 36.714 29.7065 37.0539 30.1859 36.9929C33.7516 36.5483 36.5501 33.7501 36.9947 30.1848C37.047 29.7053 36.707 29.2695 36.2275 29.2172C36.114 29.2022 35.9986 29.21 35.8882 29.2402C35.7777 29.2704 35.6744 29.3224 35.5843 29.393C35.4941 29.4636 35.419 29.5515 35.3633 29.6516C35.3076 29.7516 35.2724 29.8618 35.2598 29.9756ZM33.4203 30.3068C33.4491 30.1958 33.4558 30.0801 33.4398 29.9665C33.4238 29.8529 33.3856 29.7436 33.3273 29.6448C33.269 29.546 33.1917 29.4596 33.1 29.3908C33.0082 29.3219 32.9038 29.2718 32.7926 29.2433C32.6816 29.214 32.5658 29.207 32.452 29.2228C32.3382 29.2385 32.2287 29.2767 32.1298 29.3351C32.0308 29.3935 31.9445 29.4709 31.8757 29.5629C31.8069 29.6549 31.7571 29.7596 31.729 29.871C31.6119 30.322 31.3764 30.7336 31.0469 31.0631C30.7174 31.3926 30.3058 31.6281 29.8547 31.7452C29.6305 31.8032 29.4386 31.9478 29.3209 32.1472C29.2033 32.3465 29.1695 32.5844 29.227 32.8087C29.349 33.2707 29.8285 33.5496 30.2906 33.4363C31.0434 33.2401 31.7303 32.8466 32.2805 32.2965C32.8306 31.7464 33.2241 31.0596 33.4203 30.3068ZM36.0008 20.5958L32.9147 17.51C32.2347 16.83 31.1275 16.83 30.4475 17.51L27.6752 20.282C26.9952 20.962 26.9952 22.0691 27.6752 22.749L28.7562 23.8299L28.1372 24.4489L27.0649 23.3679C26.3849 22.688 25.2777 22.688 24.5977 23.3679L23.3598 24.6058C22.6798 25.2857 22.6798 26.3928 23.3598 27.0727L24.4408 28.1537L23.8218 28.7726L22.7495 27.6829C22.0695 27.003 20.9623 27.003 20.2823 27.6829L17.51 30.455C16.83 31.135 16.83 32.242 17.51 32.922L20.5962 36.0079C21.2762 36.6878 22.3834 36.6878 23.0634 36.0079L25.8357 33.2358C26.5157 32.5559 26.5157 31.4488 25.8357 30.7688L24.7546 29.6879L25.3736 29.069L26.4547 30.1499C27.1347 30.8299 28.2418 30.8299 28.9218 30.1499L30.1511 28.9208C30.8311 28.2408 30.8311 27.1338 30.1511 26.4538L29.0613 25.3729L29.6803 24.754L30.7613 25.8349C31.4413 26.5148 32.5485 26.5148 33.2285 25.8349L36.0008 23.0628C36.6808 22.3829 36.6808 21.2758 36.0008 20.5958ZM21.8254 34.77L18.7392 31.6929L19.6633 30.7688L22.7495 33.8547L21.8254 34.77ZM23.6736 32.922L20.5874 29.8361L21.5116 28.9121L24.5977 31.998L23.6736 32.922ZM31.9906 24.6058L28.9044 21.5199L29.8285 20.5958L32.9147 23.6817L31.9906 24.6058ZM33.8388 22.7577L30.7526 19.6718L31.6854 18.7478L34.7716 21.8337L33.8388 22.7577Z" fill="white"/>
    </g>
    <defs>
        <filter id="filter0_d_2945_2715" x="0" y="0" width="56" height="69" filterUnits="userSpaceOnUse" color-interpolation-filters="sRGB">
            <feFlood flood-opacity="0" result="BackgroundImageFix"/>
            <feColorMatrix in="SourceAlpha" type="matrix" values="0 0 0 0 0 0 0 0 0 0 0 0 0 0 0 0 0 0 127 0" result="hardAlpha"/>
            <feOffset/>
            <feGaussianBlur stdDeviation="5"/>
            <feComposite in2="hardAlpha" operator="out"/>
            <feColorMatrix type="matrix" values="0 0 0 0 0 0 0 0 0 0 0 0 0 0 0 0 0 0 0.3 0"/>
            <feBlend mode="normal" in2="BackgroundImageFix" result="effect1_dropShadow_2945_2715"/>
            <feBlend mode="normal" in="SourceGraphic" in2="effect1_dropShadow_2945_2715" result="shape"/>
        </filter>
    </defs>
</svg>
