<svg width="28" height="40" viewBox="0 0 28 40" fill="none" xmlns="http://www.w3.org/2000/svg">
<ellipse cx="14" cy="34" rx="10" ry="6" fill="#72C1FF" fill-opacity="0.7"/>
<path d="M23.899 4.11782C26.4692 6.69864 27.9392 10.1821 27.9982 13.8317C28.0571 17.4813 26.7003 21.0108 24.2148 23.6739L23.899 24.002L17.299 30.6285C16.4615 31.4689 15.3373 31.9583 14.154 31.9975C12.9706 32.0366 11.8167 31.6226 10.926 30.8393L10.702 30.6285L4.10042 24.0004C1.47497 21.3638 0 17.7878 0 14.0591C0 10.3304 1.47497 6.75441 4.10042 4.11782C6.72588 1.48122 10.2868 0 13.9997 0C17.7127 0 21.2736 1.48122 23.899 4.11782ZM13.9997 9.37277C13.3869 9.37277 12.7801 9.49399 12.2139 9.7295C11.6477 9.96501 11.1333 10.3102 10.7 10.7454C10.2666 11.1805 9.92291 11.6972 9.6884 12.2657C9.45388 12.8343 9.33318 13.4437 9.33318 14.0591C9.33318 14.6745 9.45388 15.2839 9.6884 15.8525C9.92291 16.4211 10.2666 16.9377 10.7 17.3729C11.1333 17.808 11.6477 18.1532 12.2139 18.3887C12.7801 18.6242 13.3869 18.7455 13.9997 18.7455C15.2374 18.7455 16.4243 18.2517 17.2995 17.3729C18.1746 16.494 18.6663 15.302 18.6663 14.0591C18.6663 12.8162 18.1746 11.6242 17.2995 10.7454C16.4243 9.86651 15.2374 9.37277 13.9997 9.37277Z" fill="white"/>
<circle cx="14" cy="14" r="9" fill="#54A6E7"/>
</svg>
